<svg width="206" height="18" viewBox="0 0 206 18" fill="none" xmlns="http://www.w3.org/2000/svg"><path d="M0.32 17.4199V0.619921H7.64L10.04 8.53992H10.52L12.92 0.619921H20.24V17.4199H15.2V9.49992H14.72L12.32 17.4199H8.24L5.84 9.49992H5.36V17.4199H0.32ZM33.9543 15.2359C32.3863 16.8519 30.4183 17.6599 28.0503 17.6599C25.6823 17.6599 23.7063 16.8519 22.1223 15.2359C20.5543 13.6039 19.7703 11.5319 19.7703 9.01992C19.7703 6.50792 20.5543 4.44392 22.1223 2.82792C23.7063 1.19592 25.6823 0.379921 28.0503 0.379921C30.4183 0.379921 32.3863 1.19592 33.9543 2.82792C35.5383 4.44392 36.3303 6.50792 36.3303 9.01992C36.3303 11.5319 35.5383 13.6039 33.9543 15.2359ZM25.7223 11.7319C26.3463 12.4039 27.1223 12.7399 28.0503 12.7399C28.9783 12.7399 29.7463 12.4039 30.3543 11.7319C30.9783 11.0439 31.2903 10.1399 31.2903 9.01992C31.2903 7.89992 30.9783 7.00392 30.3543 6.33192C29.7463 5.64392 28.9783 5.29992 28.0503 5.29992C27.1223 5.29992 26.3463 5.64392 25.7223 6.33192C25.1143 7.00392 24.8103 7.89992 24.8103 9.01992C24.8103 10.1399 25.1143 11.0439 25.7223 11.7319ZM35.0103 11.6599H40.0503C40.0503 12.1719 40.2423 12.5799 40.6263 12.8839C41.0103 13.1879 41.5783 13.3399 42.3303 13.3399C43.6903 13.3399 44.3703 12.9799 44.3703 12.2599C44.3703 12.0039 44.2503 11.7959 44.0103 11.6359C43.7703 11.4599 43.3303 11.3079 42.6903 11.1799L40.0503 10.6999C38.4183 10.3959 37.2263 9.85192 36.4743 9.06792C35.7383 8.28392 35.3703 7.14792 35.3703 5.65992C35.3703 4.10792 35.9623 2.81992 37.1463 1.79592C38.3463 0.771921 39.9943 0.259921 42.0903 0.259921C44.3783 0.259921 46.1463 0.819921 47.3943 1.93992C48.6583 3.05992 49.2903 4.53992 49.2903 6.37992H44.2503C44.2503 5.88392 44.0743 5.48392 43.7223 5.17992C43.3703 4.85992 42.8663 4.69992 42.2103 4.69992C41.0103 4.69992 40.4103 5.01992 40.4103 5.65992C40.4103 6.20392 40.9303 6.56392 41.9703 6.73992L44.6103 7.21992C46.3063 7.52392 47.5303 8.06792 48.2823 8.85192C49.0343 9.63592 49.4103 10.7719 49.4103 12.2599C49.4103 13.8919 48.7943 15.2199 47.5623 16.2439C46.3463 17.2679 44.6023 17.7799 42.3303 17.7799C39.9943 17.7799 38.1863 17.2279 36.9063 16.1239C35.6423 15.0039 35.0103 13.5159 35.0103 11.6599ZM59.3591 10.4599H64.3991C64.1111 12.5879 63.2471 14.3239 61.8071 15.6679C60.3671 16.9959 58.5911 17.6599 56.4791 17.6599C54.1111 17.6599 52.1351 16.8519 50.5511 15.2359C48.9831 13.6039 48.1991 11.5319 48.1991 9.01992C48.1991 6.50792 48.9831 4.44392 50.5511 2.82792C52.1351 1.19592 54.1111 0.379921 56.4791 0.379921C58.5911 0.379921 60.3671 1.04392 61.8071 2.37192C63.2471 3.68392 64.1111 5.37992 64.3991 7.45992H59.3591C59.1671 6.81992 58.8231 6.29992 58.3271 5.89992C57.8471 5.49992 57.2311 5.29992 56.4791 5.29992C55.5511 5.29992 54.7751 5.64392 54.1511 6.33192C53.5431 7.00392 53.2391 7.89992 53.2391 9.01992C53.2391 10.1399 53.5431 11.0439 54.1511 11.7319C54.7751 12.4039 55.5511 12.7399 56.4791 12.7399C57.2311 12.7399 57.8471 12.5399 58.3271 12.1399C58.8231 11.7239 59.1671 11.1639 59.3591 10.4599ZM77.5115 15.2359C75.9435 16.8519 73.9755 17.6599 71.6075 17.6599C69.2395 17.6599 67.2635 16.8519 65.6795 15.2359C64.1115 13.6039 63.3275 11.5319 63.3275 9.01992C63.3275 6.50792 64.1115 4.44392 65.6795 2.82792C67.2635 1.19592 69.2395 0.379921 71.6075 0.379921C73.9755 0.379921 75.9435 1.19592 77.5115 2.82792C79.0955 4.44392 79.8875 6.50792 79.8875 9.01992C79.8875 11.5319 79.0955 13.6039 77.5115 15.2359ZM69.2795 11.7319C69.9035 12.4039 70.6795 12.7399 71.6075 12.7399C72.5355 12.7399 73.3035 12.4039 73.9115 11.7319C74.5355 11.0439 74.8475 10.1399 74.8475 9.01992C74.8475 7.89992 74.5355 7.00392 73.9115 6.33192C73.3035 5.64392 72.5355 5.29992 71.6075 5.29992C70.6795 5.29992 69.9035 5.64392 69.2795 6.33192C68.6715 7.00392 68.3675 7.89992 68.3675 9.01992C68.3675 10.1399 68.6715 11.0439 69.2795 11.7319ZM82.1675 17.4199L78.0875 0.619921H83.4875L85.1675 8.05992H85.6475L87.4475 0.619921H92.4875L94.2875 8.05992H94.7675L96.4475 0.619921H101.848L97.7675 17.4199H92.1275L90.2075 9.61992H89.7275L87.8075 17.4199H82.1675ZM111.213 10.4599H116.253C115.965 12.5879 115.101 14.3239 113.661 15.6679C112.221 16.9959 110.445 17.6599 108.333 17.6599C105.965 17.6599 103.989 16.8519 102.405 15.2359C100.837 13.6039 100.053 11.5319 100.053 9.01992C100.053 6.50792 100.837 4.44392 102.405 2.82792C103.989 1.19592 105.965 0.379921 108.333 0.379921C110.445 0.379921 112.221 1.04392 113.661 2.37192C115.101 3.68392 115.965 5.37992 116.253 7.45992H111.213C111.021 6.81992 110.677 6.29992 110.181 5.89992C109.701 5.49992 109.085 5.29992 108.333 5.29992C107.405 5.29992 106.629 5.64392 106.005 6.33192C105.397 7.00392 105.093 7.89992 105.093 9.01992C105.093 10.1399 105.397 11.0439 106.005 11.7319C106.629 12.4039 107.405 12.7399 108.333 12.7399C109.085 12.7399 109.701 12.5399 110.181 12.1399C110.677 11.7239 111.021 11.1639 111.213 10.4599ZM115.782 17.4199V0.619921H120.822V17.4199H115.782ZM124.309 17.4199V5.53992H120.109V0.619921H133.549V5.53992H129.349V17.4199H124.309ZM137.02 17.4199V12.3799L131.02 0.619921H136.54L139.3 6.37992H139.78L142.54 0.619921H148.06L142.06 12.3799V17.4199H137.02Z" fill="#40424D"/><path d="M146.378 17.4199V0.619921H151.418V6.37992H155.978V0.619921H161.018V17.4199H155.978V11.5399H151.418V17.4199H146.378ZM159.571 17.4199L164.971 0.619921H171.931L177.331 17.4199H171.931L171.211 14.8999H165.691L164.971 17.4199H159.571ZM166.891 10.5799H170.011L168.691 6.01992H168.211L166.891 10.5799ZM185.976 10.4599H191.016C190.728 12.5879 189.864 14.3239 188.424 15.6679C186.984 16.9959 185.208 17.6599 183.096 17.6599C180.728 17.6599 178.752 16.8519 177.168 15.2359C175.6 13.6039 174.816 11.5319 174.816 9.01992C174.816 6.50792 175.6 4.44392 177.168 2.82792C178.752 1.19592 180.728 0.379921 183.096 0.379921C185.208 0.379921 186.984 1.04392 188.424 2.37192C189.864 3.68392 190.728 5.37992 191.016 7.45992H185.976C185.784 6.81992 185.44 6.29992 184.944 5.89992C184.464 5.49992 183.848 5.29992 183.096 5.29992C182.168 5.29992 181.392 5.64392 180.768 6.33192C180.16 7.00392 179.856 7.89992 179.856 9.01992C179.856 10.1399 180.16 11.0439 180.768 11.7319C181.392 12.4039 182.168 12.7399 183.096 12.7399C183.848 12.7399 184.464 12.5399 184.944 12.1399C185.44 11.7239 185.784 11.1639 185.976 10.4599ZM190.544 17.4199V0.619921H195.584V7.45992L199.184 0.619921H204.944L200.384 8.89992L205.424 17.4199H199.664L195.584 10.2199V17.4199H190.544Z" fill="#FF5151"/></svg>